<?xml version="1.0" encoding="UTF-8" standalone="no"?>
<!-- Created with Inkscape (http://www.inkscape.org/) -->

<svg
   version="1.1"
   id="svg1"
   width="350"
   height="350"
   viewBox="0 0 350 350"
   xmlns="http://www.w3.org/2000/svg"
   xmlns:svg="http://www.w3.org/2000/svg">
  <defs
     id="defs1" />
  <g
     id="g1"
     transform="translate(-106.28481,-83.206008)">
    <g
       id="g27"
       transform="translate(25.464324,3.6643754)">
      <path
         style="fill:#000000"
         d="m 239.5,425.32436 c -16.63973,-2.08535 -34.73462,-7.85341 -51.69238,-16.47784 -15.5454,-7.90612 -27.26664,-16.32065 -38.80007,-27.85407 C 101.317,333.30189 92.525351,259.06721 127.82992,202.17326 c 6.64472,-10.70807 15.3379,-21.31722 23.88462,-29.14874 6.71102,-6.14943 6.80147,-6.30184 8.95908,-15.09771 2.44604,-9.97172 9.0673,-24.71087 15.07139,-33.54942 4.84576,-7.13338 17.33162,-19.17187 24.9169,-24.02411 13.09196,-8.374828 29.57329,-14.378567 45.16909,-16.453981 32.72014,-4.354239 70.01435,12.149315 89.77942,39.729481 6.40563,8.93841 13.01912,23.52501 15.49858,34.18342 2.14357,9.21452 2.22826,9.36662 8.07334,14.5 21.09002,18.5221 37.50477,47.63629 43.9765,77.99939 1.71987,8.06907 2.17689,13.62066 2.19704,26.68841 0.0395,25.62882 -4.10766,43.64797 -15.30526,66.5 -7.38746,15.07629 -15.59186,26.36161 -27.98942,38.5 -22.85111,22.37341 -52.63531,37.64704 -82.68053,42.39939 -9.20624,1.45618 -31.5136,1.97357 -39.88067,0.92497 z M 341.13029,348.27039 C 343.5,343.5 343.5,343.5 343.5,293 c 0,-50.5 0,-50.5 -2.33791,-55.24733 -2.90055,-5.88979 -9.33024,-11.5283 -14.8293,-13.00451 -4.16721,-1.11868 -4.16721,-1.11868 -4.5264,-27.68342 -0.34863,-25.78338 -0.43722,-26.78048 -3.01201,-33.89934 -3.94191,-10.89878 -8.3872,-17.75654 -17.29438,-26.68016 -9.16308,-9.17997 -17.70515,-14.17591 -30.00991,-17.55168 -14.92531,-4.0947 -34.26879,-1.42191 -48.01627,6.63465 -15.33409,8.98638 -27.05996,24.67376 -31.54196,42.19823 C 190.28487,174.20611 190,178.87685 190,199.44165 c 0,24.12172 0,24.12172 -4.72419,25.51661 -3.17551,0.93761 -6.26514,2.93583 -9.42478,6.09547 C 168.02421,238.88055 168,239.0716 168,293 c 0,54.57673 -0.0279,54.36792 8.34416,62.52099 49.94874,32.50451 154.03184,14.39851 164.78613,-7.2506 z M 240.8874,333.75 c -7.26805,-10.5875 -17.641,-25.66561 -23.05102,-33.50692 -9.80379,-14.20968 -11.25451,-17.48492 -8.25459,-18.63609 0.86998,-0.33385 7.61998,-0.60699 15,-0.60699 C 238,281 238,281 238,266.0567 238,247.1112 237.114,248 256,248 c 18.886,0 18,-0.8888 18,18.0567 C 274,281 274,281 287.41821,281 c 7.38002,0 14.13002,0.27314 15,0.60699 2.57195,0.98695 1.83171,4.14123 -2.27306,9.68592 -2.12017,2.8639 -12.31525,17.58209 -22.65573,32.70709 -10.34049,15.125 -19.29331,27.83061 -19.89516,28.23469 -0.60184,0.40408 -1.6338,0.74158 -2.29325,0.75 -0.65944,0.008 -7.14557,-8.64719 -14.41361,-19.23469 z M 209.18946,197.69369 c 0.31054,-26.3063 0.31054,-26.3063 4.09276,-33.95466 5.45349,-11.02799 12.06864,-17.82497 22.26582,-22.87787 7.53701,-3.73474 9.24777,-4.18148 17.70714,-4.62396 18.19357,-0.95164 32.13756,6.09554 41.92917,21.19067 C 302.13569,168.14434 303,172.86393 303,200.10534 303,224 303,224 255.93946,224 c -47.06054,0 -47.06054,0 -46.75,-26.30631 z"
         id="path3" />
      <path
         style="opacity:1;fill:#ffffff;fill-rule:nonzero;stroke-width:0.845628"
         d="m 118.54307,287.94772 c -16.06645,-2.28261 -34.565174,-7.92196 -43.705021,-13.32351 -5.609341,-3.31507 -9.296675,-7.56725 -10.818434,-12.47566 -1.287875,-4.15403 -1.443167,-9.75058 -1.443167,-52.01007 0,-55.53933 -0.167919,-54.08993 7.108742,-61.35982 2.868718,-2.86605 6.289287,-5.32013 8.692424,-6.23637 2.179308,-0.8309 4.249591,-2.1343 4.600627,-2.89644 0.351036,-0.76215 0.902393,-12.42117 1.225238,-25.90893 0.650182,-27.163168 1.023538,-29.491726 6.643721,-41.435754 12.12345,-25.764791 37.54802,-40.236105 65.87885,-37.497333 24.35682,2.3546 47.39224,21.820778 55.97669,47.30334 1.62924,4.836314 1.88999,8.085358 2.47018,30.780007 0.35677,13.95512 0.91656,25.99652 1.24398,26.75867 0.32742,0.76214 2.36765,2.06258 4.53386,2.88987 5.35149,2.04375 11.41131,7.90769 13.74614,13.30182 l 1.90838,4.4089 0.003,49.47731 c 0.003,47.52976 -0.0628,49.62678 -1.67638,53.27455 -0.92384,2.08848 -3.09332,5.03837 -4.82107,6.55534 -8.14113,7.14792 -27.2139,13.7484 -50.83809,17.59345 -11.79911,1.92041 -49.36265,2.41563 -60.73,0.80063 z m 36.76109,-23.47767 c 2.11211,-2.90684 11.19546,-15.94008 20.18525,-28.96274 8.98977,-13.02267 17.3666,-25.08907 18.61517,-26.81424 1.24858,-1.72516 2.74957,-4.29411 3.33553,-5.70876 1.82194,-4.39854 0.66517,-4.8741 -13.51971,-5.55812 -10.92755,-0.52695 -12.80927,-0.82654 -14.09166,-2.24358 -1.22748,-1.35633 -1.55805,-3.87534 -1.93725,-14.76193 -0.5382,-15.4516 -0.31066,-15.0879 -10.00818,-15.99664 -6.64031,-0.62225 -20.70345,-0.0325 -23.33861,0.97869 -2.39194,0.91787 -3.0493,4.05142 -3.05431,14.55961 -0.004,7.97359 -0.92399,15.72591 -1.9377,16.32467 -0.0944,0.0558 -6.26018,0.53144 -13.7017,1.05703 -13.51453,0.95455 -13.53031,0.95808 -13.76678,3.06972 -0.31585,2.82046 2.75534,7.81608 21.6328,35.1881 21.68446,31.44211 23.74266,34.15337 25.92699,34.15337 1.25914,0 3.00337,-1.62868 5.66016,-5.28518 z m 32.25885,-124.87891 c 1.7689,-0.55692 4.35533,-2.03557 5.74762,-3.28587 3.53663,-3.17595 4.44197,-10.06804 3.73471,-28.431 -0.67984,-17.650877 -1.48859,-22.229379 -5.16715,-29.252382 -7.28708,-13.912281 -17.44473,-21.993065 -31.34864,-24.939011 -22.44122,-4.754823 -43.45143,5.492625 -53.64289,26.163597 l -3.72008,7.545309 v 22.474477 c 0,20.28737 0.14883,22.69368 1.52937,24.7271 2.01333,2.96546 6.21345,4.8789 12.66659,5.77047 7.97004,1.10116 66.28755,0.45926 70.20047,-0.77269 z"
         id="path27"
         transform="translate(106.28481,83.206008)" />
    </g>
  </g>
</svg>
